<?xml version="1.0" encoding="UTF-8"?>
<svg width="11px" height="6px" viewBox="0 0 11 6" version="1.1" xmlns="http://www.w3.org/2000/svg" xmlns:xlink="http://www.w3.org/1999/xlink">
    <!-- Generator: sketchtool 53.2 (72643) - https://sketchapp.com -->
    <title>Arrow White</title>
    <desc>Created with sketchtool.</desc>
    <g id="Home" stroke="none" stroke-width="1" fill="none" fill-rule="evenodd">
        <g id="TBS_Home" transform="translate(-335.000000, -22.000000)" fill="#fff" fill-rule="nonzero">
            <g id="STORE-FINDER">
                <path d="M343.332984,24.9883508 C343.338848,25.1798671 343.270787,25.3754033 343.136429,25.5108744 C342.944295,25.7011405 342.752162,25.8948661 342.560028,26.0851322 C341.729735,26.9153845 340.896011,27.7456368 340.065718,28.5758892 C339.544212,29.0947969 339.022706,29.617164 338.5012,30.1360717 C338.230154,30.409363 337.808145,30.3886067 337.530237,30.1360717 C337.259191,29.8835366 337.276346,29.4130603 337.530237,29.1570658 C337.722371,28.9667996 337.914505,28.7730741 338.106639,28.5828079 C338.936932,27.7525556 339.770656,26.9223033 340.600948,26.092051 C340.966212,25.7286072 341.331476,25.3634663 341.69674,24.9990056 C341.661152,24.9636005 341.625564,24.9282701 341.589976,24.8930582 C340.759515,24.0633471 339.925623,23.2336359 339.095162,22.4039248 C338.573551,21.8853554 338.051939,21.3633288 337.530328,20.8447593 C337.255795,20.5716461 337.279817,20.142962 337.530328,19.8663916 C337.780838,19.5898212 338.247544,19.610564 338.501486,19.8663916 C338.693659,20.0565337 338.885831,20.250133 339.078004,20.4402751 C339.908465,21.2699863 340.742357,22.0996974 341.572818,22.9294085 C342.09443,23.447978 342.616041,23.9700046 343.137653,24.488574 C343.276258,24.6282076 343.338616,24.8085063 343.332984,24.9883508 Z" id="Combined-Shape" transform="translate(340.333333, 25.000000) rotate(-270.000000) translate(-340.333333, -25.000000) "/>
            </g>
        </g>
    </g>
</svg>