<?xml version="1.0" encoding="utf-8"?>
<!-- Generator: Adobe Illustrator 24.3.0, SVG Export Plug-In . SVG Version: 6.00 Build 0)  -->
<svg version="1.1" id="Capa_1" xmlns="http://www.w3.org/2000/svg" xmlns:xlink="http://www.w3.org/1999/xlink" x="0px" y="0px"
	 viewBox="0 0 40 40" style="enable-background:new 0 0 40 40;" xml:space="preserve">
<style type="text/css">
	.st0{fill:#FFFFFF;}
	.st1{fill:#464C5C;}
</style>
<circle class="st0" cx="19.4" cy="20.7" r="14.1"/>
<g>
	<path class="st1" d="M20,0C9,0,0,9,0,20s9,20,20,20s20-9,20-20S31,0,20,0z M27.1,22.3h-9.2l2.1,2.5c0.8,1,0.7,2.4-0.3,3.2
		c-0.4,0.4-1,0.5-1.5,0.5c-0.6,0-1.3-0.3-1.7-0.8l-5.3-6.3c-0.7-0.9-0.7-2.1,0-3l5.3-6.3c0.8-1,2.3-1.1,3.2-0.3
		c1,0.8,1.1,2.3,0.3,3.2l-2.1,2.5h9.2c1.3,0,2.3,1,2.3,2.3S28.3,22.3,27.1,22.3z"/>
</g>
</svg>
