<?xml version="1.0" encoding="utf-8"?>
<!-- Generator: Adobe Illustrator 24.3.0, SVG Export Plug-In . SVG Version: 6.00 Build 0)  -->
<svg version="1.1" id="Capa_1" xmlns="http://www.w3.org/2000/svg" xmlns:xlink="http://www.w3.org/1999/xlink" x="0px" y="0px"
	 viewBox="0 0 40 40" style="enable-background:new 0 0 40 40;" xml:space="preserve">
<style type="text/css">
	.st0{fill:#464C5C;}
	.st1{fill:#FFFFFF;}
</style>
<circle class="st0" cx="20" cy="20" r="20"/>
<g>
	<path class="st1" d="M12.4,19.3c0.5,0,1-0.2,1.3-0.5l1.9,0.9c0,0.1,0,0.2,0,0.2c0,1.1,0.9,1.9,1.9,1.9s1.9-0.9,1.9-1.9
		c0-0.3-0.1-0.6-0.2-0.8l2.6-2.6c0.2,0.1,0.5,0.2,0.8,0.2c1.1,0,1.9-0.9,1.9-1.9c0-0.2,0-0.4-0.1-0.6l2.2-1.7
		c0.3,0.2,0.7,0.3,1.1,0.3c1.1,0,1.9-0.9,1.9-1.9s-0.9-1.9-1.9-1.9S25.7,10,25.7,11c0,0.2,0,0.4,0.1,0.6l-2.2,1.7
		c-0.3-0.2-0.7-0.3-1.1-0.3c-1.1,0-1.9,0.9-1.9,1.9c0,0.3,0.1,0.6,0.2,0.8l-2.6,2.6C18,18.1,17.7,18,17.5,18c-0.5,0-1,0.2-1.3,0.5
		l-1.9-0.9c0-0.1,0-0.2,0-0.2c0-1.1-0.9-1.9-1.9-1.9s-1.9,0.9-1.9,1.9S11.3,19.3,12.4,19.3z"/>
	<path class="st1" d="M30.2,29.6h-0.7V16.1c0-0.4-0.3-0.6-0.6-0.6h-2.5c-0.4,0-0.6,0.3-0.6,0.6v13.5h-1.3V20c0-0.4-0.3-0.6-0.6-0.6
		h-2.5c-0.4,0-0.6,0.3-0.6,0.6v9.6h-1.3v-4.5c0-0.4-0.3-0.6-0.6-0.6h-2.5c-0.4,0-0.6,0.3-0.6,0.6v4.5h-1.3v-7.1
		c0-0.4-0.3-0.6-0.6-0.6h-2.5c-0.4,0-0.6,0.3-0.6,0.6v7.1H9.8c-0.4,0-0.6,0.3-0.6,0.6c0,0.4,0.3,0.6,0.6,0.6h20.5
		c0.4,0,0.6-0.3,0.6-0.6C30.9,29.9,30.6,29.6,30.2,29.6z"/>
</g>
</svg>
